<svg xmlns="http://www.w3.org/2000/svg" width="44.91" height="28.155" viewBox="0 0 44.91 28.155">
  <path id="Icon_awesome-behance" data-name="Icon awesome-behance" d="M18.089,17.328a5.917,5.917,0,0,0,3.774-5.77c0-5.5-4.1-6.846-8.834-6.846H0V32.345H13.4c5.021,0,9.738-2.409,9.738-8.023,0-3.47-1.645-6.035-5.045-6.994ZM6.074,9.43h5.7c2.191,0,4.164.616,4.164,3.158,0,2.347-1.536,3.29-3.7,3.29H6.074Zm6.495,18.221H6.074v-7.61h6.62c2.674,0,4.366,1.115,4.366,3.945,0,2.791-2.019,3.665-4.491,3.665ZM40.521,8.884h-11.2V6.163h11.2V8.884ZM44.91,22.63c0-5.918-3.462-10.853-9.738-10.853-6.1,0-10.237,4.585-10.237,10.588,0,6.23,3.922,10.5,10.237,10.5,4.78,0,7.875-2.152,9.364-6.729h-4.85c-.522,1.708-2.674,2.612-4.343,2.612-3.22,0-4.912-1.887-4.912-5.091H44.864C44.887,23.332,44.91,22.981,44.91,22.63ZM30.439,20.2A4.294,4.294,0,0,1,35,15.924c2.76,0,4.148,1.622,4.382,4.273Z" transform="translate(0 -4.713)" fill="#012857"/>
</svg>
