<?xml version="1.0" encoding="utf-8"?>
<!-- Generator: Adobe Illustrator 23.0.5, SVG Export Plug-In . SVG Version: 6.00 Build 0)  -->
<svg version="1.1" id="Layer_1" xmlns="http://www.w3.org/2000/svg" xmlns:xlink="http://www.w3.org/1999/xlink" x="0px" y="0px"
	 viewBox="0 0 495 495" style="enable-background:new 0 0 495 495;" xml:space="preserve">
<style type="text/css">
	.st0{fill:#0C2430;}
	.st1{fill:#A8D2E5;}
</style>
<rect x="40" y="40" class="st0" width="415" height="415"/>
<g>
	<polygon class="st1" points="247.5,0 247.5,40 455,40 455,455 247.5,455 247.5,495 495,495 495,0 	"/>
	<polygon class="st1" points="40,455 40,40 247.5,40 247.5,0 0,0 0,495 247.5,495 247.5,455 	"/>
	<polygon class="st1" points="253.4,326 253.4,319.1 169.6,319.1 169.6,123.4 108.6,123.4 108.6,371.6 253.4,371.6 	"/>
	<path class="st1" d="M277.8,371.6h55V282c0-4.4,0.4-8.8,1-12.3c3.7-17,17.4-27.9,37.8-27.9c6.2,0,10.7,0.7,14.7,1.6v-51.8
		c-4-0.7-6.5-0.7-11.6-0.7c-17,0-38.7,10.9-47.8,36.6h-1.4l-1.8-32.7h-47.4c0.7,15.3,1.4,32.3,1.4,58.3L277.8,371.6L277.8,371.6z"/>
</g>
</svg>
