<svg xmlns="http://www.w3.org/2000/svg" width="32" height="31.999" viewBox="0 0 32 31.999">
  <path id="Icon_awesome-linkedin-in" data-name="Icon awesome-linkedin-in" d="M7.163,32H.529V10.636H7.163ZM3.842,7.721A3.86,3.86,0,1,1,7.684,3.843,3.875,3.875,0,0,1,3.842,7.721ZM31.993,32h-6.62V21.6c0-2.479-.05-5.657-3.449-5.657-3.449,0-3.978,2.693-3.978,5.479V32H11.319V10.636h6.363V13.55h.093a6.971,6.971,0,0,1,6.277-3.45C30.766,10.1,32,14.521,32,20.264V32Z" transform="translate(0 -0.001)" fill="#012857"/>
</svg>
