<svg xmlns="http://www.w3.org/2000/svg" width="68.525" height="73.189" viewBox="0 0 68.525 73.189">
  <g id="logo-bleu" transform="translate(-380.805 -716.451)">
    <path id="Path_1" data-name="Path 1" d="M826.172,716.451H854.44l.032.177a3.491,3.491,0,0,1-.5.125,9.329,9.329,0,0,0-8.759,9.636c0,12.976.042,25.953-.019,38.929a23.682,23.682,0,0,1-9.371,19.248,23.161,23.161,0,0,1-13.951,5.072,1.54,1.54,0,0,1-.84-.158,1.409,1.409,0,0,1,.372-.136,10.62,10.62,0,0,0,7.174-3.654,24.858,24.858,0,0,0,5.755-11.406,37.136,37.136,0,0,0,1.035-8.948q.019-19.464.006-38.929a9.276,9.276,0,0,0-8.727-9.651,4.6,4.6,0,0,1-.494-.1Z" transform="translate(-405.142)" fill="#012857"/>
    <path id="Path_2" data-name="Path 2" d="M562.036,758.364,526.3,729.9v17.917h-.234v-30.89c.238.162.449.286.638.436q17.452,13.884,34.889,27.787a1.418,1.418,0,0,1,.508.946c.034,3.866.023,7.733.019,11.6C562.116,757.86,562.076,758.031,562.036,758.364Z" transform="translate(-133.68 -0.433)" fill="#012857"/>
    <path id="Path_3" data-name="Path 3" d="M392.574,1139.032s-2.175,9.53-11.769,11.9c0,0,10.17,2.239,11.769,11.769,0,0,1.471-9.978,11.385-11.833C403.959,1150.865,393.789,1148.306,392.574,1139.032Z" transform="translate(0 -388.902)" fill="#012857"/>
  </g>
</svg>
