<svg xmlns="http://www.w3.org/2000/svg" width="67.214" height="95.322" viewBox="0 0 67.214 95.322">
  <g id="pen-tool" transform="matrix(0.966, 0.259, -0.259, 0.966, -18.81, -465.716)">
    <path id="Path_9" data-name="Path 9" d="M191.033,492.7a5.711,5.711,0,0,1-5.695,5.695H168.248a5.711,5.711,0,0,1-5.695-5.695v-8.547h28.48Z" transform="translate(4.635 30.006)" fill="#012857"/>
    <path id="Path_10" data-name="Path 10" d="M175.732,481.7A5.5,5.5,0,0,1,180,476V440.4H178.58c0,12.817-14.419,34.18-22.786,41.3,0,0,11.394,14.24,11.394,27.057h14.24V487.4A5.894,5.894,0,0,1,175.732,481.7Z" fill="#fbd764"/>
    <path id="Path_11" data-name="Path 11" d="M173.849,440.4h-1.425V476a5.5,5.5,0,0,1,4.272,5.7,5.894,5.894,0,0,1-5.7,5.7v21.361h14.24c0-12.817,11.394-27.057,11.394-27.057C188.268,474.58,173.849,453.217,173.849,440.4Z" transform="translate(10.429)" fill="#f6bb42"/>
    <rect id="Rectangle_6" data-name="Rectangle 6" width="28.481" height="5.696" transform="translate(167.188 508.462)" fill="#ededed"/>
  </g>
</svg>
